<svg width="393" height="272" viewBox="0 0 393 272" fill="none" xmlns="http://www.w3.org/2000/svg">
<g clip-path="url(#clip0_0_1)">
<path d="M1.125 170.812V161.125C9.82292 161.125 15.8906 159.302 19.3281 155.656C22.8177 152.01 24.5625 145.917 24.5625 137.375V112.375C24.5625 105.187 25.2396 98.9635 26.5938 93.7031C28 88.4427 30.2656 84.0937 33.3906 80.6562C36.5156 77.2187 40.6823 74.6667 45.8906 73C51.099 71.3333 57.5313 70.5 65.1875 70.5V85.8125C59.1458 85.8125 54.3802 86.75 50.8906 88.625C47.4531 90.5 45.0052 93.4167 43.5469 97.375C42.1406 101.281 41.4375 106.281 41.4375 112.375V143.625C41.4375 147.687 40.8906 151.385 39.7969 154.719C38.7552 158.052 36.8021 160.917 33.9375 163.312C31.0729 165.708 26.9844 167.557 21.6719 168.859C16.4115 170.161 9.5625 170.812 1.125 170.812ZM65.1875 270.5C57.5313 270.5 51.099 269.667 45.8906 268C40.6823 266.333 36.5156 263.781 33.3906 260.344C30.2656 256.906 28 252.557 26.5938 247.297C25.2396 242.036 24.5625 235.813 24.5625 228.625V203.625C24.5625 195.083 22.8177 188.99 19.3281 185.344C15.8906 181.698 9.82292 179.875 1.125 179.875V170.187C9.5625 170.187 16.4115 170.839 21.6719 172.141C26.9844 173.443 31.0729 175.292 33.9375 177.687C36.8021 180.083 38.7552 182.948 39.7969 186.281C40.8906 189.615 41.4375 193.312 41.4375 197.375V228.625C41.4375 234.719 42.1406 239.719 43.5469 243.625C45.0052 247.531 47.4531 250.422 50.8906 252.297C54.3802 254.224 59.1458 255.188 65.1875 255.188V270.5ZM1.125 179.875V161.125H19.5625V179.875H1.125Z" fill="white"/>
<path d="M393.563 170.187V179.875C384.865 179.875 378.771 181.698 375.281 185.344C371.844 188.99 370.125 195.083 370.125 203.625V228.625C370.125 235.813 369.422 242.036 368.016 247.297C366.661 252.557 364.422 256.906 361.297 260.344C358.172 263.781 354.005 266.333 348.797 268C343.589 269.667 337.156 270.5 329.5 270.5V255.188C335.542 255.188 340.281 254.224 343.719 252.297C347.208 250.422 349.656 247.531 351.063 243.625C352.521 239.719 353.25 234.719 353.25 228.625V197.375C353.25 193.312 353.771 189.615 354.813 186.281C355.906 182.948 357.885 180.083 360.75 177.687C363.615 175.292 367.677 173.443 372.938 172.141C378.25 170.839 385.125 170.187 393.563 170.187ZM329.5 70.5C337.156 70.5 343.589 71.3333 348.797 73C354.005 74.6667 358.172 77.2187 361.297 80.6562C364.422 84.0937 366.661 88.4427 368.016 93.7031C369.422 98.9635 370.125 105.187 370.125 112.375V137.375C370.125 145.917 371.844 152.01 375.281 155.656C378.771 159.302 384.865 161.125 393.563 161.125V170.812C385.125 170.812 378.25 170.161 372.938 168.859C367.677 167.557 363.615 165.708 360.75 163.312C357.885 160.917 355.906 158.052 354.813 154.719C353.771 151.385 353.25 147.687 353.25 143.625V112.375C353.25 106.281 352.521 101.281 351.063 97.375C349.656 93.4167 347.208 90.5 343.719 88.625C340.281 86.75 335.542 85.8125 329.5 85.8125V70.5ZM393.563 161.125V179.875H375.125V161.125H393.563Z" fill="white"/>
<path d="M144.531 235.953C137.305 235.953 130.794 234.163 125 230.582C119.141 227.001 114.421 222.184 110.84 216.129C107.324 210.074 105.566 203.303 105.566 195.816V132.438C105.566 125.146 107.357 118.505 110.938 112.516C114.453 106.461 119.173 101.643 125.098 98.0625C131.022 94.4167 137.5 92.5938 144.531 92.5938C151.888 92.5938 158.529 94.3516 164.453 97.8672C170.378 101.448 175.065 106.233 178.516 112.223C182.031 118.212 183.789 124.951 183.789 132.438V141.617C183.789 142.138 183.464 142.398 182.812 142.398H160.352C159.831 142.398 159.57 142.138 159.57 141.617V134C159.57 128.922 158.138 124.723 155.273 121.402C152.409 118.082 148.828 116.422 144.531 116.422C140.69 116.422 137.272 118.017 134.277 121.207C131.283 124.397 129.785 128.141 129.785 132.438V195.816C129.785 200.178 131.25 203.954 134.18 207.145C137.109 210.27 140.56 211.832 144.531 211.832C148.828 211.832 152.409 210.302 155.273 207.242C158.138 204.117 159.57 200.309 159.57 195.816V185.953H145.605C144.889 185.953 144.531 185.628 144.531 184.977V162.613C144.531 161.962 144.889 161.637 145.605 161.637H183.008C183.529 161.637 183.789 161.962 183.789 162.613V195.816C183.789 203.303 182.031 210.074 178.516 216.129C174.935 222.184 170.215 227.001 164.355 230.582C158.496 234.163 151.888 235.953 144.531 235.953ZM234.961 235.953C227.865 235.953 221.322 234.13 215.332 230.484C209.408 226.839 204.622 221.988 200.977 215.934C197.396 209.814 195.605 203.108 195.605 195.816L195.801 132.438C195.801 125.016 197.591 118.342 201.172 112.418C204.688 106.428 209.44 101.643 215.43 98.0625C221.419 94.4167 227.93 92.5938 234.961 92.5938C242.253 92.5938 248.796 94.3841 254.59 97.9648C260.449 101.546 265.137 106.363 268.652 112.418C272.233 118.408 274.023 125.081 274.023 132.438L274.219 195.816C274.219 203.108 272.461 209.781 268.945 215.836C265.365 221.956 260.612 226.839 254.688 230.484C248.763 234.13 242.188 235.953 234.961 235.953ZM234.961 211.832C238.997 211.832 242.513 210.204 245.508 206.949C248.503 203.629 250 199.918 250 195.816L249.805 132.438C249.805 128.01 248.405 124.267 245.605 121.207C242.806 118.147 239.258 116.617 234.961 116.617C230.859 116.617 227.344 118.115 224.414 121.109C221.484 124.104 220.02 127.88 220.02 132.438V195.816C220.02 200.178 221.484 203.954 224.414 207.145C227.344 210.27 230.859 211.832 234.961 211.832Z" fill="white"/>
<path d="M240.182 248.488C238.375 248.488 236.723 248.033 235.226 247.121C233.744 246.21 232.564 244.989 231.686 243.459C230.823 241.913 230.392 240.196 230.392 238.308L230.44 222.707C230.44 220.852 230.864 219.175 231.71 217.678C232.556 216.164 233.72 214.951 235.201 214.04C236.699 213.112 238.359 212.648 240.182 212.648C242.037 212.648 243.689 213.096 245.138 213.991C246.603 214.886 247.766 216.099 248.629 217.629C249.508 219.143 249.947 220.835 249.947 222.707V225.002C249.947 225.132 249.882 225.197 249.752 225.197H244.137C244.007 225.197 243.941 225.132 243.941 225.002V222.707C243.941 221.6 243.583 220.648 242.867 219.851C242.151 219.053 241.256 218.654 240.182 218.654C238.993 218.654 238.082 219.061 237.447 219.875C236.812 220.689 236.495 221.633 236.495 222.707V238.308C236.495 239.528 236.853 240.529 237.569 241.311C238.285 242.076 239.156 242.458 240.182 242.458C241.256 242.458 242.151 242.035 242.867 241.188C243.583 240.326 243.941 239.366 243.941 238.308V235.988C243.941 235.858 244.007 235.793 244.137 235.793H249.801C249.931 235.793 249.996 235.858 249.996 235.988V238.308C249.996 240.179 249.557 241.888 248.678 243.435C247.783 244.965 246.603 246.193 245.138 247.121C243.673 248.033 242.021 248.488 240.182 248.488ZM262.887 248.488C261.113 248.488 259.477 248.033 257.979 247.121C256.498 246.21 255.302 244.997 254.391 243.483C253.495 241.953 253.048 240.277 253.048 238.454L253.097 222.609C253.097 220.754 253.544 219.086 254.439 217.604C255.318 216.107 256.507 214.911 258.004 214.016C259.501 213.104 261.129 212.648 262.887 212.648C264.71 212.648 266.345 213.096 267.794 213.991C269.259 214.886 270.431 216.091 271.31 217.604C272.205 219.102 272.652 220.77 272.652 222.609L272.701 238.454C272.701 240.277 272.262 241.945 271.383 243.459C270.488 244.989 269.299 246.21 267.818 247.121C266.337 248.033 264.693 248.488 262.887 248.488ZM262.887 242.458C263.896 242.458 264.775 242.051 265.523 241.237C266.272 240.407 266.646 239.479 266.646 238.454L266.598 222.609C266.598 221.503 266.248 220.567 265.548 219.802C264.848 219.037 263.961 218.654 262.887 218.654C261.861 218.654 260.982 219.029 260.25 219.777C259.518 220.526 259.151 221.47 259.151 222.609V238.454C259.151 239.545 259.518 240.489 260.25 241.286C260.982 242.067 261.861 242.458 262.887 242.458ZM285.689 247.951L276.729 248C276.567 248 276.485 247.919 276.485 247.756L276.583 213.405C276.583 213.275 276.648 213.21 276.778 213.21L286.129 213.161C287.984 213.112 289.661 213.535 291.158 214.431C292.672 215.326 293.876 216.538 294.771 218.068C295.683 219.582 296.139 221.258 296.139 223.098V237.453C296.139 239.374 295.675 241.132 294.747 242.727C293.803 244.305 292.55 245.567 290.987 246.511C289.425 247.438 287.659 247.919 285.689 247.951ZM286.129 219.143L282.638 219.191L282.589 241.848H285.689C286.926 241.848 287.968 241.416 288.814 240.554C289.661 239.691 290.084 238.658 290.084 237.453V223.049C290.084 221.991 289.693 221.071 288.912 220.29C288.131 219.493 287.203 219.11 286.129 219.143ZM316.427 248H300.265C300.134 248 300.069 247.919 300.069 247.756L300.118 213.405C300.118 213.275 300.183 213.21 300.313 213.21H316.378C316.508 213.21 316.573 213.291 316.573 213.454V219.045C316.573 219.175 316.508 219.24 316.378 219.24H306.124V227.053H316.378C316.508 227.053 316.573 227.118 316.573 227.248L316.622 232.912C316.622 233.042 316.557 233.107 316.427 233.107H306.124V241.848H316.427C316.557 241.848 316.622 241.929 316.622 242.092V247.805C316.622 247.935 316.557 248 316.427 248Z" fill="#730000"/>
<path d="M173.29 6.02C172.87 7.79333 172.427 9.70666 171.96 11.76C171.493 13.8133 171.073 15.82 170.7 17.78C170.327 19.74 170.023 21.5367 169.79 23.17H163.14L162.65 22.4C163.07 20.7667 163.607 19.0167 164.26 17.15C164.913 15.2367 165.637 13.3233 166.43 11.41C167.223 9.49666 167.993 7.7 168.74 6.02H173.29ZM160.34 6.02C159.92 7.79333 159.477 9.70666 159.01 11.76C158.543 13.8133 158.123 15.82 157.75 17.78C157.377 19.74 157.073 21.5367 156.84 23.17H150.26L149.84 22.4C150.26 20.7667 150.797 19.0167 151.45 17.15C152.103 15.2367 152.803 13.3233 153.55 11.41C154.343 9.49666 155.113 7.7 155.86 6.02H160.34ZM234.813 6.79C234.393 8.42333 233.857 10.1967 233.203 12.11C232.55 14.0233 231.827 15.9367 231.033 17.85C230.287 19.7167 229.54 21.49 228.793 23.17H224.173C224.64 21.3967 225.083 19.5067 225.503 17.5C225.97 15.4467 226.39 13.44 226.763 11.48C227.183 9.47333 227.51 7.65333 227.743 6.02H234.323L234.813 6.79ZM221.863 6.79C221.443 8.42333 220.907 10.1967 220.253 12.11C219.6 14.0233 218.877 15.9367 218.083 17.85C217.337 19.7167 216.59 21.49 215.843 23.17H211.363C211.69 21.8633 212.017 20.4633 212.343 18.97C212.67 17.4767 212.973 15.9833 213.253 14.49C213.58 12.95 213.86 11.4567 214.093 10.01C214.373 8.56333 214.607 7.23333 214.793 6.02H221.373L221.863 6.79Z" fill="#730000"/>
<path d="M135.069 72.9824L93.4678 39.877C92.6865 39.0957 92.2959 38.168 92.2959 37.0938C92.2959 36.1172 92.6865 35.3359 93.4678 34.75L133.971 2.52344C134.264 2.23047 134.63 2.2793 135.069 2.66992L142.394 11.8252C142.687 12.4111 142.735 12.8018 142.54 12.9971L112.511 37.3135L143.565 62.5088C143.907 62.8018 143.907 63.1924 143.565 63.6807L136.095 72.8359C135.704 73.2266 135.362 73.2754 135.069 72.9824ZM286.827 39.877L245.299 72.9824C245.006 73.2754 244.664 73.2266 244.273 72.8359L236.729 63.6807C236.437 63.1924 236.437 62.8018 236.729 62.5088L267.784 37.3135L237.755 12.9971C237.56 12.8018 237.633 12.4111 237.975 11.8252L245.299 2.66992C245.689 2.2793 246.031 2.23047 246.324 2.52344L286.827 34.75C287.657 35.3359 288.072 36.1172 288.072 37.0938C288.072 38.1191 287.657 39.0469 286.827 39.877Z" fill="#730000"/>
</g>
<defs>
<clipPath id="clip0_0_1">
<rect width="393" height="272" fill="white"/>
</clipPath>
</defs>
</svg>
